<svg xmlns="http://www.w3.org/2000/svg" viewBox="0 0 800 600">
<rect width="800" height="600" fill="#e5dbc9"/>
<path d="M0 138c170 18 300 70 414 148 118 82 250 122 386 116" fill="none" stroke="#fff" stroke-width="34" opacity=".7"/>
<path d="M44 490c142-76 252-162 340-280 92-122 200-182 416-194" fill="none" stroke="#fff" stroke-width="22" opacity=".48"/>
<path d="M108 120v412M238 72v470M384 62v482M548 50v500M674 72v470" stroke="#ffffff" stroke-opacity=".35"/>
<path d="M60 150h680M60 286h680M60 422h680" stroke="#ffffff" stroke-opacity=".35"/>
<circle cx="502" cy="284" r="46" fill="#173043"/>
<circle cx="502" cy="284" r="18" fill="#fff"/>
<path d="M502 206c54 0 98 44 98 98 0 48-36 96-98 146-62-50-98-98-98-146 0-54 44-98 98-98Z" fill="#a98453" opacity=".7"/>
</svg>